<?xml version="1.0" encoding="UTF-8" standalone="no"?>
<!DOCTYPE svg PUBLIC "-//W3C//DTD SVG 1.1//EN" "http://www.w3.org/Graphics/SVG/1.1/DTD/svg11.dtd">
<svg version="1.1" xmlns="http://www.w3.org/2000/svg" xmlns:xlink="http://www.w3.org/1999/xlink" preserveAspectRatio="xMidYMid meet" viewBox="0 0 253.333 253.333" width="253.33" height="253.33"><defs><path d="M255.03 126.8C255.03 196.76 198.32 253.47 128.36 253.47C58.41 253.47 1.7 196.76 1.7 126.8C1.7 56.85 58.41 0.14 128.36 0.14C198.32 0.14 255.03 56.85 255.03 126.8" id="bsCa9YUJ2"></path><path d="M46.77 89.44C45.68 75.21 46.04 60.21 52.61 44.71C54.47 40.32 59.45 38.44 63.23 40.72C76.6 48.77 85.45 61.56 92.03 77.17C82.97 79.63 55.82 86.99 46.77 89.44Z" id="ae06kYrI2"></path><path d="M208.97 89.44C210.05 75.21 209.7 60.21 203.13 44.71C201.26 40.32 196.29 38.44 192.51 40.72C179.14 48.77 170.28 61.56 163.71 77.17C172.76 79.63 199.92 86.99 208.97 89.44Z" id="ctzQlv7R7"></path><path d="M127.7 210.54C81.45 210.54 43.22 182.32 36.87 145.63C37.07 139.34 38.05 133.1 39.93 127.14C40.43 125.54 41 123.96 41.64 122.4C43.22 118.52 45.22 114.78 47.66 111.27C48.31 110.33 49 109.41 49.72 108.51C51.16 106.72 52.73 105 54.41 103.39C55.68 102.18 57 101.03 58.38 99.94C59.76 98.85 61.2 97.83 62.68 96.87C67.63 93.68 73.1 91.26 78.8 89.84C80.52 89.42 82.25 89.08 84 88.84C85.75 88.6 87.51 88.46 89.28 88.42C91.64 88.37 94.01 88.5 96.37 88.82C98.11 89.06 99.82 89.42 101.5 89.9C104.03 90.6 106.47 91.56 108.8 92.73C110.35 93.51 111.85 94.39 113.29 95.35C114.73 96.31 116.1 97.35 117.4 98.47C121.93 102.39 125.54 107.22 127.7 112.52C129.85 107.22 133.46 102.39 138 98.47C139.29 97.35 140.67 96.31 142.1 95.35C143.54 94.39 145.04 93.51 146.59 92.73C148.92 91.56 151.37 90.6 153.89 89.9C155.57 89.42 157.29 89.06 159.03 88.82C177.92 86.21 197.28 96.23 207.74 111.27C209.2 113.38 210.51 115.57 211.66 117.82C212.14 118.75 212.59 119.7 213.02 120.66C214.3 123.54 215.34 126.52 216.17 129.55C216.83 131.98 217.35 134.44 217.73 136.93C217.99 138.6 218.19 140.27 218.33 141.95C218.43 143.17 218.48 144.4 218.53 145.63C212.18 182.32 173.94 210.54 127.7 210.54M217.47 107.27C206.49 62.99 169.85 42.69 127.7 42.69C85.54 42.69 48.9 62.99 37.93 107.27C34.52 121.02 34.16 135.04 36.64 148.62C36.7 148.92 36.77 149.22 36.83 149.53C45.08 192.36 79.09 218.91 127.7 218.91C176.3 218.91 210.31 192.36 218.56 149.53C218.62 149.22 218.69 148.92 218.75 148.62C221.23 135.04 220.87 121.02 217.47 107.27" id="crZREffPc"></path><path d="M127.7 219.86C173.94 219.86 212.18 192.98 218.53 156.28C218.48 155.05 218.43 143.17 218.33 141.95C218.19 140.27 217.99 138.6 217.73 136.94C217.35 134.44 216.83 131.98 216.17 129.55C215.07 125.5 213.58 121.57 211.66 117.82C210.51 115.56 209.2 113.38 207.74 111.27C197.28 96.23 177.92 86.21 159.03 88.82C157.29 89.06 155.57 89.42 153.89 89.9C151.37 90.6 148.92 91.56 146.59 92.73C145.04 93.51 143.54 94.39 142.1 95.35C140.67 96.31 139.29 97.35 138 98.47C133.46 102.39 129.85 107.22 127.7 112.52C125.54 107.22 121.93 102.39 117.4 98.47C116.1 97.35 114.73 96.31 113.29 95.35C111.85 94.39 110.35 93.51 108.8 92.73C106.47 91.56 104.03 90.6 101.5 89.9C99.82 89.42 98.11 89.06 96.37 88.82C94.01 88.5 91.64 88.37 89.28 88.42C85.74 88.5 82.23 88.99 78.8 89.84C73.1 91.26 67.62 93.68 62.68 96.87C59.72 98.78 56.94 100.98 54.41 103.39C52.73 105 51.16 106.72 49.72 108.51C49 109.41 48.31 110.33 47.66 111.27C45.22 114.78 43.22 118.52 41.64 122.4C41 123.96 40.43 125.54 39.93 127.14C38.05 133.1 37.07 150 36.87 156.28C43.22 192.98 81.45 219.86 127.7 219.86" id="aRpN6o8nf"></path><path d="M113.55 136.77C113.55 154.42 99.25 168.72 81.61 168.72C63.96 168.72 49.66 154.42 49.66 136.77C49.66 119.13 63.96 104.82 81.61 104.82C99.25 104.82 113.55 119.13 113.55 136.77" id="dokAeRGAZ"></path><path d="M205.74 136.77C205.74 154.42 191.43 168.72 173.79 168.72C156.14 168.72 141.84 154.42 141.84 136.77C141.84 119.13 156.14 104.82 173.79 104.82C191.43 104.82 205.74 119.13 205.74 136.77" id="dhZHtFXMs"></path><path d="M93.18 138.99C93.18 144.87 88.41 149.64 82.53 149.64C76.65 149.64 71.88 144.87 71.88 138.99C71.88 133.11 76.65 128.34 82.53 128.34C88.41 128.34 93.18 133.11 93.18 138.99" id="b2tGHrk9mU"></path><path d="M76.37 138.99C76.37 138.99 76.27 138.82 76.13 138.53C75.99 138.26 75.86 137.74 75.84 137.18C75.78 136.59 75.91 135.92 76.15 135.22C76.29 134.89 76.44 134.53 76.67 134.22C76.86 133.88 77.14 133.59 77.4 133.3C77.69 133.03 77.98 132.76 78.32 132.56C78.63 132.34 78.99 132.19 79.32 132.04C79.67 131.93 80.01 131.81 80.34 131.78C80.67 131.72 80.99 131.71 81.28 131.73C81.56 131.73 81.82 131.79 82.05 131.84C82.27 131.88 82.47 131.95 82.62 132.03C82.93 132.16 83.09 132.27 83.09 132.27C83.09 132.27 82.93 132.39 82.66 132.55C82.39 132.71 82.03 132.96 81.65 133.22C80.87 133.76 80.03 134.43 79.28 135.18C78.53 135.93 77.86 136.77 77.31 137.54C77.06 137.94 76.81 138.24 76.65 138.55C76.49 138.83 76.37 138.99 76.37 138.99" id="k6Um7Y1qW"></path><path d="M182.92 138.99C182.92 144.87 178.15 149.64 172.27 149.64C166.38 149.64 161.62 144.87 161.62 138.99C161.62 133.11 166.38 128.34 172.27 128.34C178.15 128.34 182.92 133.11 182.92 138.99" id="a566lOZvCf"></path><path d="M166.1 138.99C166.1 138.99 166 138.82 165.86 138.53C165.72 138.26 165.59 137.74 165.57 137.18C165.51 136.59 165.64 135.92 165.88 135.22C166.03 134.89 166.17 134.53 166.4 134.22C166.6 133.88 166.87 133.59 167.13 133.3C167.43 133.03 167.71 132.76 168.05 132.56C168.36 132.34 168.72 132.19 169.06 132.04C169.41 131.93 169.74 131.81 170.07 131.78C170.4 131.72 170.72 131.71 171.01 131.73C171.29 131.73 171.56 131.79 171.78 131.84C172.01 131.88 172.2 131.95 172.36 132.03C172.67 132.16 172.83 132.27 172.83 132.27C172.83 132.27 172.66 132.39 172.39 132.55C172.12 132.71 171.76 132.96 171.38 133.22C170.6 133.76 169.76 134.43 169.01 135.18C168.26 135.93 167.59 136.77 167.05 137.54C166.79 137.94 166.55 138.24 166.39 138.55C166.22 138.83 166.1 138.99 166.1 138.99" id="aeZx30KQG"></path><path d="M142.91 176.53C142.91 186.37 136.1 199.99 127.7 199.99C119.3 199.99 112.49 186.37 112.49 176.53C112.49 166.69 119.3 158.72 127.7 158.72C136.1 158.72 142.91 166.69 142.91 176.53" id="estA5STrQ"></path><path d="M128.2 112.73C110.21 99.62 85.91 95.62 64.66 102.28C56.65 104.79 49.09 108.71 40.94 110.72C32.79 112.74 23.5 112.57 16.79 107.52C29.58 109.43 38.04 103.67 49.16 97.07C60.27 90.46 71.53 82.97 84.4 81.68C103.79 79.75 124.97 93.51 128.2 112.73" id="aU27MdDA"></path><path d="M127.19 112.73C145.18 99.62 169.49 95.62 190.73 102.28C198.75 104.79 206.3 108.71 214.45 110.72C222.6 112.74 231.89 112.57 238.6 107.52C225.81 109.43 217.35 103.67 206.24 97.07C195.12 90.46 183.86 82.97 171 81.68C151.6 79.75 130.42 93.51 127.19 112.73" id="aY1HGDjgz"></path></defs><g><g><g><use xlink:href="#bsCa9YUJ2" opacity="1" fill="#489ed3" fill-opacity="1"></use><g><use xlink:href="#bsCa9YUJ2" opacity="1" fill-opacity="0" stroke="#000000" stroke-width="1" stroke-opacity="0"></use></g></g><g><use xlink:href="#ae06kYrI2" opacity="1" fill="#c17474" fill-opacity="1"></use><g><use xlink:href="#ae06kYrI2" opacity="1" fill-opacity="0" stroke="#000000" stroke-width="1" stroke-opacity="0"></use></g></g><g><use xlink:href="#ctzQlv7R7" opacity="1" fill="#c17474" fill-opacity="1"></use><g><use xlink:href="#ctzQlv7R7" opacity="1" fill-opacity="0" stroke="#000000" stroke-width="1" stroke-opacity="0"></use></g></g><g><use xlink:href="#crZREffPc" opacity="1" fill="#c17474" fill-opacity="1"></use><g><use xlink:href="#crZREffPc" opacity="1" fill-opacity="0" stroke="#000000" stroke-width="1" stroke-opacity="0"></use></g></g><g><use xlink:href="#aRpN6o8nf" opacity="1" fill="#fff9f3" fill-opacity="1"></use><g><use xlink:href="#aRpN6o8nf" opacity="1" fill-opacity="0" stroke="#000000" stroke-width="1" stroke-opacity="0"></use></g></g><g><use xlink:href="#dokAeRGAZ" opacity="1" fill="#f2dac0" fill-opacity="1"></use><g><use xlink:href="#dokAeRGAZ" opacity="1" fill-opacity="0" stroke="#000000" stroke-width="1" stroke-opacity="0"></use></g></g><g><use xlink:href="#dhZHtFXMs" opacity="1" fill="#f2dac0" fill-opacity="1"></use><g><use xlink:href="#dhZHtFXMs" opacity="1" fill-opacity="0" stroke="#000000" stroke-width="1" stroke-opacity="0"></use></g></g><g><use xlink:href="#b2tGHrk9mU" opacity="1" fill="#35190e" fill-opacity="1"></use><g><use xlink:href="#b2tGHrk9mU" opacity="1" fill-opacity="0" stroke="#000000" stroke-width="1" stroke-opacity="0"></use></g></g><g><use xlink:href="#k6Um7Y1qW" opacity="1" fill="#ffffff" fill-opacity="1"></use><g><use xlink:href="#k6Um7Y1qW" opacity="1" fill-opacity="0" stroke="#000000" stroke-width="1" stroke-opacity="0"></use></g></g><g><use xlink:href="#a566lOZvCf" opacity="1" fill="#35190e" fill-opacity="1"></use><g><use xlink:href="#a566lOZvCf" opacity="1" fill-opacity="0" stroke="#000000" stroke-width="1" stroke-opacity="0"></use></g></g><g><use xlink:href="#aeZx30KQG" opacity="1" fill="#ffffff" fill-opacity="1"></use><g><use xlink:href="#aeZx30KQG" opacity="1" fill-opacity="0" stroke="#000000" stroke-width="1" stroke-opacity="0"></use></g></g><g><use xlink:href="#estA5STrQ" opacity="1" fill="#ffd16c" fill-opacity="1"></use><g><use xlink:href="#estA5STrQ" opacity="1" fill-opacity="0" stroke="#000000" stroke-width="1" stroke-opacity="0"></use></g></g><g><use xlink:href="#aU27MdDA" opacity="1" fill="#8e4f4f" fill-opacity="1"></use><g><use xlink:href="#aU27MdDA" opacity="1" fill-opacity="0" stroke="#000000" stroke-width="1" stroke-opacity="0"></use></g></g><g><use xlink:href="#aY1HGDjgz" opacity="1" fill="#8e4f4f" fill-opacity="1"></use><g><use xlink:href="#aY1HGDjgz" opacity="1" fill-opacity="0" stroke="#000000" stroke-width="1" stroke-opacity="0"></use></g></g></g></g></svg>